PathFileType	4	(X/Y/Z)	C:\Users\WrightLab\Desktop\Jo\P1.2Trial5.trc
DataRate	CameraRate	NumFrames	NumMarkers	Units	OrigDataRate	OrigDataStartFrame	OrigNumFrames
100.00	100.00	       32	19	mm	100.00	219	       872
Frame#	Time	Headset_Front			Headset_Back			Headset_Left			Headset_Right			Left_Shoulder			Right_Shoulder			Sternum			C7			Left Elbow			Right Elbow			Left Wrist			Right Wrist			Left ASIS			Right ASIS			S2			Left Knee			Right Knee			Left Ankle			Right Ankle			
		X1	Y1	Z1	X2	Y2	Z2	X3	Y3	Z3	X4	Y4	Z4	X5	Y5	Z5	X6	Y6	Z6	X7	Y7	Z7	X8	Y8	Z8	X9	Y9	Z9	X10	Y10	Z10	X11	Y11	Z11	X12	Y12	Z12	X13	Y13	Z13	X14	Y14	Z14	X15	Y15	Z15	X16	Y16	Z16	X17	Y17	Z17	X18	Y18	Z18	X19	Y19	Z19	

219	2.180				-522.94031	1497.47595	1407.23108	-628.49982	1374.05688	1355.29297	-585.38159	1152.43640	1455.85083	-754.83691	1297.81799	1561.10217													-277.12573	980.56348	1544.21021				-259.19104	778.78528	1373.21057										-765.14661	483.87439	1626.72656	-488.81506	458.42911	1579.35852							
220	2.190				-522.94165	1497.68909	1407.07581	-628.53632	1374.27112	1354.99805	-584.88989	1151.86304	1455.62341	-755.06110	1297.82288	1560.72852													-276.92450	981.11847	1546.61353				-258.12943	778.34686	1376.07227										-765.23224	483.67175	1626.76123	-488.83536	458.34467	1579.36218							
221	2.200				-522.96857	1497.79260	1406.99622	-630.98657	1375.80115	1355.04822	-585.16571	1152.19592	1455.75830	-755.25360	1297.73682	1560.41199													-277.19266	980.97388	1547.65527				-257.13477	777.83130	1378.23950										-765.55090	483.52591	1626.74231	-489.23367	458.86121	1578.72559							
222	2.210				-523.30127	1498.03503	1406.92529	-630.96759	1375.93506	1354.74792	-584.88892	1152.03333	1454.73145	-755.43140	1297.71826	1559.96069													-276.41013	981.84766	1548.98865				-256.42993	777.09772	1380.95813										-765.55286	483.20261	1626.38611	-490.58276	459.84415	1575.40344							
223	2.220				-523.33032	1498.13489	1406.86316	-628.68890	1374.87012	1354.18677	-585.04645	1152.37476	1454.22595	-755.84723	1297.69092	1559.61060													-276.47385	981.93927	1549.72217				-254.80992	776.07434	1383.64551										-765.85669	483.13672	1626.47009	-490.77573	459.77103	1575.39246							
224	2.230				-523.48785	1498.36035	1406.72681	-628.79388	1375.06213	1353.92175	-584.70435	1152.07983	1453.21069	-756.32233	1297.69788	1559.18372													-276.21896	982.53082	1551.16797				-252.94438	776.51074	1385.91479										-766.19867	482.92209	1626.20972	-490.82196	459.71219	1575.39246							
225	2.240				-523.52429	1498.40625	1406.62146	-628.92065	1375.26428	1353.68237	-584.92773	1152.32092	1452.73230	-756.69531	1297.62708	1558.33875													-275.85794	983.40436	1551.96655				-251.89378	776.12152	1387.90027										-766.37732	482.94357	1626.12659	-490.62875	459.69525	1574.63586							
226	2.250				-523.55945	1498.48218	1406.52307	-629.16010	1375.46167	1353.44055	-585.24207	1152.63452	1452.61389	-756.96881	1297.67981	1557.43628													-275.22079	983.63641	1551.77246				-250.34320	775.93195	1390.39380										-766.62805	482.86066	1625.69348	-490.78925	459.41119	1574.37170							
227	2.260				-524.03723	1498.84009	1406.43127	-629.33063	1375.58704	1353.15039	-585.24359	1152.63452	1452.00549	-757.27240	1297.63806	1556.43958													-274.35504	983.98627	1552.03394				-249.56076	775.03320	1391.80713										-766.99548	482.96445	1625.21143	-490.67661	459.34293	1573.72241							
228	2.270				-524.12567	1498.88501	1406.28943	-629.59387	1375.82410	1352.91309	-585.22729	1152.12842	1454.14282	-757.64044	1297.58936	1555.68213													-274.01306	984.22119	1551.92468				-248.24889	774.93799	1393.57007										-767.49799	482.86502	1624.48816	-490.58029	459.27982	1573.07129							
229	2.280				-524.50745	1499.08752	1406.14648	-629.90533	1375.97412	1352.70471	-585.41327	1152.28394	1453.65051	-757.88379	1297.55212	1555.05811													-272.76913	985.68756	1552.87817				-247.06548	774.95465	1394.75964										-767.91565	482.94577	1623.85364	-490.77777	459.89694	1571.55103							
230	2.290				-524.80627	1499.27563	1405.96680	-630.22070	1376.13855	1352.46582	-585.59161	1152.44666	1453.16052	-758.17120	1297.50208	1554.87048													-272.59811	985.88263	1552.78979				-246.04620	775.14673	1395.24414										-768.39233	482.90201	1623.26257	-490.72089	459.59833	1570.97510							
231	2.300				-525.50946	1499.51843	1405.91089	-630.50543	1376.25305	1352.23645	-585.78790	1152.62805	1452.63904	-758.50018	1297.55078	1554.84973													-272.22195	986.50861	1552.95752				-245.14268	774.89386	1395.46069										-768.84253	482.83511	1622.45117	-490.94205	459.46973	1570.01208							
232	2.310				-525.69818	1499.56213	1405.69751	-630.88464	1376.39685	1352.03271	-585.96283	1152.79443	1452.17529	-758.73224	1297.42126	1554.36755													-272.17392	986.58258	1552.92017				-244.09621	774.90906	1396.13635										-769.43561	482.66934	1621.68188	-491.55988	459.45282	1569.18323							
233	2.320				-526.32928	1499.84985	1405.59180	-631.20367	1376.49243	1351.81921	-586.24384	1152.96057	1451.70825	-759.04071	1297.41748	1554.14136													-272.07211	986.88623	1552.63245				-242.98843	775.40778	1397.37183										-770.07928	482.75183	1620.97571	-491.95914	459.41013	1568.58777							
234	2.330				-526.81049	1500.04712	1405.44580	-631.61243	1376.64563	1351.62158	-586.47882	1153.17786	1451.23572	-759.39618	1297.44580	1553.92432													-271.93857	987.23566	1552.39624				-242.65523	775.57709	1397.35620										-770.73962	482.72025	1620.30408	-492.18204	459.35843	1568.74524							
235	2.340				-527.37585	1500.42871	1405.35828	-632.02466	1376.86621	1351.49683	-586.72137	1153.37695	1450.69055	-759.66614	1297.50525	1553.29053													-272.20645	987.60541	1552.34717				-242.05934	776.13348	1397.00488										-771.62579	482.93338	1619.54004	-492.18527	459.15103	1568.51624							
236	2.350				-527.77606	1500.84985	1405.18579	-632.44397	1377.03979	1351.37170	-587.00128	1153.68347	1450.18640	-760.06836	1297.68469	1552.87744													-272.70963	987.51288	1552.02710				-241.71330	776.86279	1396.82751										-772.21509	482.67334	1618.07471	-492.15903	458.84525	1568.34180							
237	2.360				-528.08551	1500.92542	1405.18042	-632.83398	1377.21667	1351.25830	-587.25793	1153.92822	1449.63452	-760.55133	1297.73474	1552.33167													-272.88464	987.83344	1551.82764				-241.31044	777.27362	1396.37158										-773.12653	482.61340	1617.20142	-492.67520	458.93179	1567.92847							
238	2.370				-528.44958	1501.12329	1405.14417	-633.27588	1377.50439	1351.14697	-587.84979	1154.90344	1447.49866	-761.03333	1297.85083	1552.25122													-272.91537	988.12958	1551.24548				-241.23045	777.72522	1396.22119										-773.70764	482.52319	1616.66968	-493.14777	458.09781	1567.30042							
239	2.380				-529.12610	1501.30994	1405.16821	-633.72986	1377.75500	1351.06921	-588.21912	1155.19250	1447.04614	-761.58368	1297.99365	1552.15906													-273.61118	988.33380	1551.01538				-241.46141	778.73981	1395.43787										-774.63910	482.48331	1615.99036	-493.18677	458.10760	1566.90381							
240	2.390				-529.83099	1501.80298	1405.11206	-634.29224	1378.10120	1350.99011	-588.48193	1155.40295	1446.46118	-762.04700	1298.12976	1551.92407													-273.87250	988.42139	1550.98633				-241.60370	779.41431	1393.65454										-775.79156	482.56436	1614.25671	-493.20581	457.82471	1566.08252							
241	2.400				-530.81006	1502.24377	1405.19458	-634.86145	1378.49829	1350.92786	-588.94434	1155.77490	1445.86255	-762.40375	1298.35315	1551.90210													-274.31287	989.18488	1550.54773				-241.99149	779.86804	1392.70642										-776.67877	482.72913	1613.07263	-493.21860	457.73602	1565.80334							
242	2.410				-531.25867	1502.53076	1405.20618	-635.57050	1378.96033	1350.86401	-589.63739	1156.31287	1445.38171	-762.74982	1298.51062	1551.80237													-274.63513	988.91504	1549.17834				-242.85133	780.94775	1391.33936										-777.41681	482.51569	1612.88184	-493.34573	457.61664	1565.79077							
243	2.420				-531.77032	1503.00415	1405.21924	-636.31348	1379.53479	1350.83118	-590.22888	1156.84363	1444.91650	-763.21136	1298.86194	1551.71729													-275.83185	988.81549	1548.25476				-243.23497	781.23938	1389.73071										-778.35419	482.83975	1611.43384	-493.59720	457.57233	1564.39771							
244	2.430				-532.56091	1503.58154	1405.34534	-637.09595	1380.19727	1350.82275	-590.65009	1157.23059	1444.42773	-763.75586	1299.24158	1551.64111													-275.91663	988.89508	1547.99353				-243.82530	782.17438	1388.09680										-779.53558	483.13910	1609.48962	-494.57275	458.07031	1562.85681							
245	2.440				-533.08350	1504.07019	1405.39966	-637.75580	1380.78772	1350.83289	-591.76849	1158.25696	1444.05237	-764.15637	1299.56824	1551.03638													-276.13950	989.20129	1547.64343				-244.52882	782.80774	1386.71875										-780.48462	483.42206	1607.49036	-495.10361	458.20969	1561.42896							
246	2.450				-535.74628	1505.40808	1405.83044	-638.43652	1381.37012	1350.89380	-591.70386	1158.64636	1443.13281	-764.79816	1300.05066	1550.83606													-276.44559	989.77942	1546.85608				-245.48088	783.73090	1384.61108										-781.32159	483.97006	1605.75989	-495.40143	457.82956	1561.34290							
247	2.460				-536.24969	1505.92224	1405.93530	-639.26941	1382.01758	1350.93262	-593.00433	1159.59399	1442.46399	-765.54077	1300.47253	1549.90247													-277.34525	990.58118	1545.77100				-246.14687	784.46704	1381.98547										-782.33215	484.27933	1603.79993	-495.55127	457.70770	1561.32983							
248	2.470				-536.92920	1506.46851	1406.01270	-640.20508	1382.70593	1350.91382	-592.89160	1159.32214	1441.81335	-766.13098	1300.74890	1548.83350													-277.38525	990.94330	1545.17371				-247.26401	785.62787	1381.23047										-783.68475	484.56155	1601.12903	-495.75449	457.67276	1561.04907							
249	2.480				-536.12402	1506.42969	1405.82251	-641.12128	1383.40710	1350.88306	-594.03418	1160.25525	1441.23206	-766.76709	1301.07385	1548.56201													-278.94751	990.60486	1543.05420				-248.36737	786.44025	1378.78528				-442.03955	851.84143	1459.38623				-784.86487	484.89600	1599.79688	-496.14130	457.68347	1559.39063							
250	2.490				-538.88873	1507.75610	1406.24451	-642.13159	1384.30286	1350.85095	-594.91571	1160.88440	1440.71863	-767.35809	1301.36511	1548.64893													-279.86264	990.92969	1541.78027				-249.00487	787.59064	1377.18835				-443.87793	852.77014	1461.14368				-785.96259	485.65665	1596.49243	-496.43384	457.02591	1557.36218							
